<?xml version="1.0" encoding="UTF-8" standalone="no"?>
<!-- Created with Inkscape (http://www.inkscape.org/) -->

<svg
   xmlns:dc="http://purl.org/dc/elements/1.1/"
   xmlns:cc="http://creativecommons.org/ns#"
   xmlns:rdf="http://www.w3.org/1999/02/22-rdf-syntax-ns#"
   xmlns:svg="http://www.w3.org/2000/svg"
   xmlns="http://www.w3.org/2000/svg"
   xmlns:sodipodi="http://sodipodi.sourceforge.net/DTD/sodipodi-0.dtd"
   xmlns:inkscape="http://www.inkscape.org/namespaces/inkscape"
   width="32"
   height="32"
   viewBox="0 0 32 32.000001"
   id="svg4238"
   version="1.1"
   inkscape:version="0.92.2 5c3e80d, 2017-08-06"
   sodipodi:docname="icon.svg"
   inkscape:export-filename="/Users/toddcope/T3/Projects/Apps/OMO/icons/android_icon-xhdpi_96.png"
   inkscape:export-xdpi="288.00003"
   inkscape:export-ydpi="288.00003">
  <defs
     id="defs4240" />
  <sodipodi:namedview
     id="base"
     pagecolor="#ffffff"
     bordercolor="#666666"
     borderopacity="1.0"
     inkscape:pageopacity="0.0"
     inkscape:pageshadow="2"
     inkscape:zoom="5.6"
     inkscape:cx="18.759507"
     inkscape:cy="16.565711"
     inkscape:document-units="px"
     inkscape:current-layer="layer1"
     showgrid="true"
     units="px"
     inkscape:window-width="1920"
     inkscape:window-height="1035"
     inkscape:window-x="0"
     inkscape:window-y="1"
     inkscape:window-maximized="1">
    <inkscape:grid
       type="xygrid"
       id="grid4800"
       spacingx="1"
       spacingy="1" />
  </sodipodi:namedview>
  <metadata
     id="metadata4243">
    <rdf:RDF>
      <cc:Work
         rdf:about="">
        <dc:format>image/svg+xml</dc:format>
        <dc:type
           rdf:resource="http://purl.org/dc/dcmitype/StillImage" />
        <dc:title></dc:title>
      </cc:Work>
    </rdf:RDF>
  </metadata>
  <g
     inkscape:label="Layer 1"
     inkscape:groupmode="layer"
     id="layer1"
     transform="translate(0,-1020.3622)">
    <path
       style="fill:#96bde0;fill-opacity:1;fill-rule:evenodd;stroke:none;stroke-width:1px;stroke-linecap:butt;stroke-linejoin:miter;stroke-opacity:1"
       d="m 16,3 -12.9999999,6.4999995 0,6.0000005 4,2 0,8 5.9999999,3 0,-8 3,1.5 3,-1.5 0,8 6,-3 v -8 l 4.000001,-2 V 9.4999995 Z m 0,7 3,1.5 v 2 l -3,1.5 -3,-1.5 0,-2 z"
       transform="translate(0,1020.3622)"
       id="path4811"
       inkscape:connector-curvature="0"
       sodipodi:nodetypes="cccccccccccccccccccccc" />
    <g
       transform="translate(10,24)"
       id="g4801">
      <path
         inkscape:connector-curvature="0"
         style="fill:#24527c;fill-opacity:1;fill-rule:evenodd;stroke:none;stroke-width:1px;stroke-linecap:butt;stroke-linejoin:miter;stroke-opacity:1"
         d="m 6,1000.3622 12,6 v 5 l -4,-2 v 8 l -4,-2 v -8 l -4,-2 z"
         id="path4793" />
      <path
         inkscape:connector-curvature="0"
         style="fill:#2e689e;fill-opacity:1;fill-rule:evenodd;stroke:none;stroke-width:1px;stroke-linecap:butt;stroke-linejoin:miter;stroke-opacity:1"
         d="M 18,-14 6,-8 v 5 l 4,-2 v 8 l 4,-2 v -8 l 4,-2 z"
         transform="translate(0,1020.3622)"
         id="path4795" />
      <path
         id="path4797"
         d="m 6,1000.3622 -12,6 v 5 l 4,-2 v 8 l 4,-2 v -8 l 4,-2 z"
         style="fill:#2e689e;fill-opacity:1;fill-rule:evenodd;stroke:none;stroke-width:1px;stroke-linecap:butt;stroke-linejoin:miter;stroke-opacity:1"
         inkscape:connector-curvature="0" />
      <path
         id="path4799"
         d="m -6,1006.3622 12,6 v 5 l -4,-2 v 8 l -4,-2 v -8 l -4,-2 z"
         style="fill:#24527c;fill-opacity:1;fill-rule:evenodd;stroke:none;stroke-width:1px;stroke-linecap:butt;stroke-linejoin:miter;stroke-opacity:1"
         inkscape:connector-curvature="0" />
    </g>
  </g>
</svg>
